<?xml version="1.0" standalone="no"?>
<!DOCTYPE svg PUBLIC "-//W3C//DTD SVG 20010904//EN"
 "http://www.w3.org/TR/2001/REC-SVG-20010904/DTD/svg10.dtd">
<svg version="1.0" xmlns="http://www.w3.org/2000/svg"
 width="500.000000pt" height="500.000000pt" viewBox="0 0 500.000000 500.000000"
 preserveAspectRatio="xMidYMid meet">
<metadata>
Created by potrace 1.16, written by Peter Selinger 2001-2019
</metadata>
<g transform="translate(0.000000,500.000000) scale(0.100000,-0.100000)"
fill="#000000" stroke="none">
<path d="M2408 4197 l-438 -41 0 -26 c0 -15 36 -422 81 -906 84 -915 94 -1076
70 -1182 -39 -175 -164 -262 -380 -262 -192 0 -305 105 -356 330 -9 41 -50
437 -91 880 -89 954 -102 1081 -109 1088 -5 5 -947 -76 -953 -83 -5 -5 168
-1887 184 -1992 86 -587 434 -955 989 -1044 103 -17 370 -17 505 0 533 66 887
285 1072 664 77 157 108 300 114 532 5 181 2 229 -71 1010 -65 691 -101 1061
-104 1073 -2 5 -96 -2 -513 -41z m375 -179 c35 -366 150 -1688 154 -1763 13
-231 -50 -489 -163 -662 -58 -89 -207 -230 -303 -287 -232 -136 -549 -205
-888 -193 -122 4 -180 11 -254 30 -235 61 -387 152 -522 315 -128 153 -190
297 -231 534 -14 82 -180 1858 -174 1862 7 5 640 58 643 54 2 -2 7 -42 10 -88
25 -330 148 -1650 161 -1715 69 -344 260 -506 569 -481 341 28 504 211 505
569 1 51 -34 478 -77 949 -42 472 -74 861 -70 864 6 6 518 59 609 63 25 1 27
-2 31 -51z"/>
<path d="M4010 4216 c-160 -44 -253 -158 -287 -352 -25 -150 12 -271 110 -359
165 -150 493 -207 673 -118 171 84 260 327 194 535 -24 80 -93 161 -173 207
-142 81 -389 122 -517 87z m290 -167 c114 -26 185 -68 225 -133 27 -44 30 -57
29 -125 -2 -139 -63 -239 -163 -269 -112 -34 -327 10 -445 91 -16 11 -40 45
-54 75 -21 46 -24 64 -19 117 11 119 59 209 130 244 57 28 179 28 297 0z"/>
<path d="M3627 3333 c-86 -386 -499 -2334 -495 -2338 5 -5 165 -42 597 -136
247 -53 326 -67 332 -58 4 7 10 29 14 48 4 20 107 504 229 1076 255 1194 270
1266 259 1275 -6 6 -895 200 -915 200 -3 0 -13 -30 -21 -67z m446 -183 c155
-34 289 -63 298 -66 14 -4 15 -11 7 -42 -5 -20 -107 -491 -226 -1045 l-217
-1009 -35 6 c-19 2 -127 25 -240 49 -113 24 -238 50 -277 57 -67 11 -73 14
-68 33 3 12 100 463 215 1002 253 1179 229 1075 246 1075 8 0 142 -27 297 -60z"/>
</g>
</svg>
